<?xml version="1.0" encoding="utf-8"?>
<!-- Generator: Adobe Illustrator 22.0.0, SVG Export Plug-In . SVG Version: 6.00 Build 0)  -->
<svg fill="white" version="1.1" id="Слой_1" xmlns="http://www.w3.org/2000/svg" xmlns:xlink="http://www.w3.org/1999/xlink" x="0px" y="0px" height="55px"
	 viewBox="0 0 708.4 300.8" style="enable-background:new 0 0 708.4 300.8;" xml:space="preserve">
<g>
	<path d="M246.2,1.2c-2.9,5-5.9,10.1-8.8,15.1c-27,46.8-54.1,93.6-81.1,140.5c-0.6,1-0.5,1.6,0,2.6c16.1,27.8,32.2,55.7,48.3,83.6
		c0.4,0.6,0.5,1.1,0.1,1.8c-10.3,17.7-20.5,35.4-30.7,53.1c-0.1,0.2-0.3,0.4-0.5,0.8c-0.3-0.5-0.5-0.9-0.8-1.2
		c-32.1-55.7-64.3-111.4-96.4-167C51.7,87.7,27.1,45.1,2.5,2.5C2.2,2.2,1.9,1.8,1.6,1.4c0-0.1,0.1-0.2,0.1-0.2c0.3,0,0.6,0,1,0
		C83.9,1.2,165,1.2,246.2,1.2z M96.7,56.2c9.1,15.7,18.1,31.3,27.2,47c9.1-15.8,18.1-31.3,27.2-47C132.9,56.2,114.9,56.2,96.7,56.2z
		"/>
	<path d="M272.6,189c16.6-28.7,33-57.2,49.6-85.8c37.6,65.2,75.2,130.3,112.9,195.5c-0.5,0-0.8,0.1-1.1,0.1c-20.4,0-40.7,0-61.1,0
		c-0.9,0-1.3-0.4-1.7-1.1c-15.9-27.6-31.9-55.2-47.8-82.8c-0.3-0.6-0.7-1.2-1.1-1.9c-16.5,28.7-33,57.1-49.5,85.8
		c-0.3-0.5-0.5-0.8-0.7-1.1c-26.6-46.1-53.2-92.1-79.8-138.2c-0.6-1-0.6-1.7,0-2.7c10.1-17.4,20.1-34.7,30.1-52.1
		c0.2-0.4,0.5-0.8,0.8-1.4C239.6,131.8,256,160.3,272.6,189z"/>
	<path d="M596.3,71.9c-4,0-7.9,0-11.9,0c-0.5-14.3,0.5-28.5,1-42.7c-0.1,0-0.2,0-0.3-0.1c-0.2,0.5-0.4,0.9-0.5,1.4
		c-4.9,13.4-9.7,26.9-14.6,40.3c-0.3,0.9-0.7,1.2-1.6,1.1c-2-0.1-3.9-0.1-5.9,0c-1,0.1-1.4-0.3-1.7-1.2c-4.9-13.5-9.7-27-14.6-40.6
		c-0.2-0.4-0.3-0.9-0.6-1.3c0.5,14.3,1.4,28.6,1,43c-3.9,0-7.8,0-11.8,0c0-19.4,0-38.9,0-58.4c0.4,0,0.8-0.1,1.2-0.1
		c4.4,0,8.9,0,13.3,0c0.9,0,1.3,0.3,1.6,1.2c4.7,13.3,9.4,26.5,14.1,39.7c0.2,0.4,0.3,0.9,0.6,1.6c0.3-0.7,0.5-1.1,0.6-1.5
		c4.7-13.2,9.3-26.4,13.9-39.7c0.3-0.9,0.7-1.3,1.8-1.3c4.4,0.1,8.8,0,13.2,0c0.4,0,0.8,0,1.3,0.1C596.3,32.9,596.3,52.4,596.3,71.9
		z"/>
	<path d="M315.3,13.3c0,19.6,0,39.1,0,58.5c-4,0-7.9,0-11.9,0c0-16.2,0-32.4,0-48.7c-7.9,0-15.7,0-23.6,0c0,16.2,0,32.4,0,48.7
		c-4,0-8,0-12,0c0-0.4-0.1-0.9-0.1-1.4c0-18.5,0-37,0-55.5c0-1.6,0-1.6,1.5-1.6c14.9,0,29.7,0,44.6,0
		C314.3,13.3,314.7,13.3,315.3,13.3z"/>
	<path d="M475.9,42.7c-0.2-5.4,0.5-10.7,2.7-15.6c4.7-11,14.7-15.3,24.9-14.4c9.2,0.8,18.7,6.6,21.5,20.7c1.5,7.8,1.4,15.6-1.2,23.2
		C520.2,67,511.4,73,500.2,72.8c-11.1-0.3-19.6-6.9-22.9-17.8C476.2,50.9,475.8,46.8,475.9,42.7z M513.6,42.7c0-1.1,0-2.2,0-3.4
		c-0.2-3.4-0.6-6.8-2.1-9.9c-2.1-4.5-5.5-6.9-10.5-7c-5.1-0.1-8.6,2.3-10.7,6.8c-0.5,1-0.9,2.1-1.2,3.3c-1.3,5.1-1.1,10.2-0.8,15.4
		c0.2,3.2,0.9,6.2,2.5,9.1c2.6,4.7,7.2,6.8,12.4,5.9c4.8-0.9,7.5-4,9-8.4C513.4,50.6,513.7,46.7,513.6,42.7z"/>
	<path d="M657.7,72c-2.7,0-5.3,0-7.9,0c-1.2,0-2.4-0.1-3.6,0c-1,0.1-1.4-0.3-1.7-1.3c-1-3.3-2.2-6.5-3.3-9.8c-0.3-0.8-0.6-1-1.4-1
		c-6.4,0-12.8,0-19.2,0c-0.8,0-1.1,0.3-1.3,1c-1.1,3.4-2.2,6.7-3.4,10.1c-0.1,0.4-0.5,0.9-0.8,0.9c-4,0.1-8.1,0-12.2,0
		c1.1-3,2.2-5.9,3.2-8.8c6-16.2,12.1-32.5,18.1-48.7c0.3-0.8,0.7-1.2,1.6-1.2c3,0.1,6,0,9,0c0.8,0,1.1,0.2,1.4,1
		c7,18.9,14.1,37.8,21.2,56.6C657.4,71.2,657.5,71.5,657.7,72z M630.4,28.5c-0.1,0-0.2,0-0.3,0c-2.4,7.2-4.8,14.3-7.2,21.6
		c5,0,9.8,0,14.7,0C635.2,42.8,632.8,35.7,630.4,28.5z"/>
	<path d="M436.5,71.9c-4.1,0-8,0-12,0c0-19.5,0-39,0-58.4c0.3,0,0.5-0.1,0.8-0.1c8.2,0,16.4,0,24.6,0.1c3.4,0.1,6.6,1,9.6,2.6
		c7,3.8,10,9.8,9.8,17.6c-0.3,10.7-8,16-16.2,17.1c-4.5,0.6-9,0.4-13.5,0.5c-1,0-1.9,0-3,0C436.5,58.2,436.5,65,436.5,71.9z
		 M436.5,41.5c4.2,0,8.3,0.2,12.4,0c4.9-0.3,7.7-2.8,8.2-7.3c0.7-5.6-2.5-10.6-8.5-10.9c-3.2-0.2-6.4-0.1-9.6-0.1
		c-0.8,0-1.6,0-2.4,0C436.5,29.3,436.5,35.3,436.5,41.5z"/>
	<path d="M365.2,13.3c0,3.3,0,6.4,0,9.7c-9,0-18,0-27,0c0,4.7,0,9.3,0,14.1c7.7,0,15.3,0,23.1,0c0,2.4,0,4.7,0,7l0,2.4l-2.4,0
		c-6.4,0-12.8,0-19.2,0c-0.5,0-1,0-1.5,0c0,5.3,0,10.5,0,15.8c9,0,18,0,27,0c0,3.3,0,6.4,0,9.6c-13,0-26,0-39.1,0
		c0-0.5-0.1-0.9-0.1-1.3c0-18.6,0-37.1,0-55.7c0-1.2,0.2-1.6,1.5-1.6c12.1,0.1,24.2,0,36.3,0C364.3,13.3,364.7,13.3,365.2,13.3z"/>
	<path d="M675.3,71.9c-4.1,0-8,0-11.9,0c0-19.5,0-38.9,0-58.4c0.2,0,0.4-0.1,0.6-0.1c8.3,0,16.6,0,24.8,0.1c3.5,0.1,6.8,1.1,9.8,2.7
		c7.1,3.8,10.1,11.1,9.4,18.8c-0.9,9.4-7.8,14.7-16.2,15.8c-4.5,0.6-9.1,0.4-13.6,0.5c-0.9,0-1.8,0-2.9,0c0,3.5,0,6.9,0,10.4
		C675.3,65.1,675.3,68.4,675.3,71.9z M675.4,23.1c0,6.3,0,12.3,0,18.4c4.3,0,8.5,0.2,12.8-0.1c3.6-0.2,6.5-1.9,7.5-5.6
		c0.4-1.4,0.4-2.9,0.3-4.3c-0.3-4.5-3.6-7.9-8-8.2c-2.6-0.2-5.3-0.1-7.9-0.2C678.5,23.1,677,23.1,675.4,23.1z"/>
	<path d="M387.5,23.1c-0.7,0-1.1,0-1.6,0c-5,0-9.9,0-14.9,0l-1.3,0v-1.3c0.1-2.8,0-5.5,0-8.4c16,0,31.8,0,47.7,0c0,3.2,0,6.3,0,9.6
		c-0.5,0-1,0-1.4,0c-5,0-10.1,0-15.1,0c-1.1,0-1.4,0.3-1.4,1.4c0,15.2,0,30.5,0,45.7c0,0.6,0,1.1,0,1.7c-4.1,0-8,0-12,0
		C387.5,55.6,387.5,39.5,387.5,23.1z"/>
</g>
</svg>
